<svg xmlns="http://www.w3.org/2000/svg" width="121.874" height="25.497" viewBox="0 0 121.874 25.497">
  <g id="Logo_Grey_04" data-name="Logo Grey 04" transform="translate(-276.915 882.457)">
    <g id="document">
      <g id="Path_75" data-name="Path 75">
        <path id="Path_106" data-name="Path 106" d="M282.456-872.9l-1.177-4.336-4.364,1.149,1.177,4.364Zm0,6.374-4.364-1.177-1.177,4.364,4.364,1.149Zm5.513,3.187-3.187,3.187,3.187,3.187,3.188-3.187Zm5.513-3.187,1.177,4.364,4.364-1.177-1.177-4.364Zm0-6.374,4.364,1.177,1.177-4.364-4.364-1.149Zm-5.513-3.188,3.188-3.186-3.188-3.188-3.187,3.188Z" fill="#d9d9e2"/>
      </g>
    </g>
    <g id="Adverus" transform="translate(-1)" style="isolation: isolate">
      <g id="Group_40" data-name="Group 40" style="isolation: isolate">
        <path id="Path_107" data-name="Path 107" d="M319.279-860.35l-1.613-4.892H310.7l-1.613,4.892H305.6l6.715-18.926h3.817l6.716,18.926Zm-5.142-15.582-2.649,8.08h5.378l-2.637-8.08Z" fill="#d9d9e2"/>
        <path id="Path_108" data-name="Path 108" d="M328.762-860.126a5.122,5.122,0,0,1-4.2-1.942,8.112,8.112,0,0,1-1.568-5.246,8.094,8.094,0,0,1,1.568-5.234,5.124,5.124,0,0,1,4.2-1.941,4.887,4.887,0,0,1,2.6.7,4.375,4.375,0,0,1,1.7,1.876h.079v-7.358h3.266v18.926h-3.2v-2.374h-.052a4.433,4.433,0,0,1-1.738,1.9A5.028,5.028,0,0,1,328.762-860.126Zm.984-11.674a2.959,2.959,0,0,0-2.492,1.213,5.322,5.322,0,0,0-.918,3.286,5.34,5.34,0,0,0,.912,3.292,2.96,2.96,0,0,0,2.5,1.207,2.964,2.964,0,0,0,2.479-1.22,5.27,5.27,0,0,0,.931-3.279,5.279,5.279,0,0,0-.931-3.273A2.959,2.959,0,0,0,329.746-871.8Z" fill="#d9d9e2"/>
        <path id="Path_109" data-name="Path 109" d="M350.851-874.253l-4.893,13.9h-3.594l-4.931-13.9h3.489l3.226,10.874h.066l3.226-10.874Z" fill="#d9d9e2"/>
        <path id="Path_110" data-name="Path 110" d="M360.623-864.507h3.056a4.763,4.763,0,0,1-2.007,3.207,6.878,6.878,0,0,1-4.145,1.226,6.364,6.364,0,0,1-4.9-1.922,7.417,7.417,0,0,1-1.784-5.253,7.669,7.669,0,0,1,1.777-5.3,6.087,6.087,0,0,1,4.781-1.994,6.031,6.031,0,0,1,4.683,1.9,7.226,7.226,0,0,1,1.731,5.069v1.063h-9.719v.2a3.806,3.806,0,0,0,.951,2.7,3.314,3.314,0,0,0,2.551,1.024,3.575,3.575,0,0,0,1.948-.518A2.446,2.446,0,0,0,360.623-864.507Zm-3.214-7.5a3.046,3.046,0,0,0-2.276.938,3.705,3.705,0,0,0-1.016,2.407h6.492a3.569,3.569,0,0,0-.931-2.414A2.982,2.982,0,0,0,357.409-872.01Z" fill="#d9d9e2"/>
        <path id="Path_111" data-name="Path 111" d="M365.372-860.35v-13.9h3.134v2.427h.066a3.7,3.7,0,0,1,1.226-1.968,3.277,3.277,0,0,1,2.105-.7,4.83,4.83,0,0,1,1.023.131v2.951a3.859,3.859,0,0,0-1.324-.183,2.843,2.843,0,0,0-2.178.839,3.246,3.246,0,0,0-.786,2.309v8.092Z" fill="#d9d9e2"/>
        <path id="Path_112" data-name="Path 112" d="M386.4-874.253v13.9h-3.148v-2.413h-.065a4.235,4.235,0,0,1-4.25,2.662,4.766,4.766,0,0,1-3.6-1.383A5.233,5.233,0,0,1,374-865.268v-8.985h3.266v8.329a3.281,3.281,0,0,0,.715,2.282,2.681,2.681,0,0,0,2.092.787,2.851,2.851,0,0,0,2.23-.918,3.512,3.512,0,0,0,.826-2.439v-8.041Z" fill="#d9d9e2"/>
        <path id="Path_113" data-name="Path 113" d="M388.273-870.266a3.71,3.71,0,0,1,1.548-3.1,6.55,6.55,0,0,1,4.079-1.181,6.239,6.239,0,0,1,3.968,1.2,3.978,3.978,0,0,1,1.593,3.128h-3.043a1.888,1.888,0,0,0-.76-1.416,2.964,2.964,0,0,0-1.824-.512,2.926,2.926,0,0,0-1.731.466,1.437,1.437,0,0,0-.656,1.226q0,1.153,1.994,1.639l2.479.551A6.27,6.27,0,0,1,398.9-866.9a3.251,3.251,0,0,1,.892,2.427,3.766,3.766,0,0,1-1.652,3.18,7.07,7.07,0,0,1-4.289,1.214,6.787,6.787,0,0,1-4.178-1.187,4.261,4.261,0,0,1-1.751-3.181h3.213a2.1,2.1,0,0,0,.873,1.469,3.352,3.352,0,0,0,1.961.512,3.394,3.394,0,0,0,1.882-.453,1.4,1.4,0,0,0,.689-1.226,1.2,1.2,0,0,0-.427-.964,3.74,3.74,0,0,0-1.436-.623l-2.531-.59Q388.273-867.223,388.273-870.266Z" fill="#d9d9e2"/>
      </g>
    </g>
  </g>
</svg>
