<svg xmlns="http://www.w3.org/2000/svg" width="128.212" height="28.653" viewBox="0 0 128.212 28.653">
  <g id="Logo_Grey_05" data-name="Logo Grey 05" transform="translate(-774.795 948.653)">
    <g id="Group_32" data-name="Group 32" transform="translate(805.628 -947.642)">
      <path id="Path_97" data-name="Path 97" d="M806.7-930.833l3.362-.919a2.814,2.814,0,0,0,.962,1.917,3.391,3.391,0,0,0,2.35.776,2.927,2.927,0,0,0,1.794-.49,1.46,1.46,0,0,0,.653-1.2,1.343,1.343,0,0,0-.483-1.039,2.94,2.94,0,0,0-1.431-.61l-2.41-.541a5.9,5.9,0,0,1-3.239-1.77,4.457,4.457,0,0,1-1.134-3.043,4.693,4.693,0,0,1,1.737-3.651,6.224,6.224,0,0,1,4.252-1.524,7.943,7.943,0,0,1,2.338.324,5.85,5.85,0,0,1,1.712.8A5.313,5.313,0,0,1,818.3-940.7a5.469,5.469,0,0,1,.7,1.18,4.809,4.809,0,0,1,.305,1.083l-3.194.919a2.527,2.527,0,0,0-.228-.76,3.368,3.368,0,0,0-.5-.76,2.339,2.339,0,0,0-.911-.618,3.6,3.6,0,0,0-1.351-.237,2.568,2.568,0,0,0-1.681.548,1.645,1.645,0,0,0-.669,1.306,1.476,1.476,0,0,0,.451,1.08,2.265,2.265,0,0,0,1.207.6l2.459.506a6.317,6.317,0,0,1,3.4,1.722,4.222,4.222,0,0,1,1.182,3,5.177,5.177,0,0,1-.385,1.963,5.866,5.866,0,0,1-1.108,1.749,5.193,5.193,0,0,1-1.91,1.286,6.909,6.909,0,0,1-2.65.488,8.038,8.038,0,0,1-2.987-.525,5.555,5.555,0,0,1-2.08-1.353,6.876,6.876,0,0,1-1.159-1.662A4.948,4.948,0,0,1,806.7-930.833Z" transform="translate(-806.704 947.449)" fill="#d9d9e2"/>
      <path id="Path_98" data-name="Path 98" d="M819.912-939.171v-3.41h.832a2.394,2.394,0,0,0,1.877-.706,2.668,2.668,0,0,0,.637-1.856v-2.463h3.508v5.026h3.378v3.41h-3.378v7.59a2.113,2.113,0,0,0,.5,1.569,2.185,2.185,0,0,0,1.574.485,6.74,6.74,0,0,0,1.338-.131v3.186a6.3,6.3,0,0,1-2.388.356,4.873,4.873,0,0,1-3.582-1.292,4.784,4.784,0,0,1-1.308-3.567v-8.2Z" transform="translate(-807.149 947.607)" fill="#d9d9e2"/>
      <path id="Path_99" data-name="Path 99" d="M831.5-930.519a4.362,4.362,0,0,1,1.355-3.361,6.5,6.5,0,0,1,3.558-1.585l4.177-.638q1.206-.152,1.207-1.1a2.087,2.087,0,0,0-.769-1.671,3.509,3.509,0,0,0-2.307-.648,3.3,3.3,0,0,0-2.347.814,3.176,3.176,0,0,0-1.007,2.075l-3.526-.782a5.782,5.782,0,0,1,2.086-3.91,6.994,6.994,0,0,1,4.744-1.608,9.4,9.4,0,0,1,3.216.5,5.424,5.424,0,0,1,2.193,1.387,5.729,5.729,0,0,1,1.2,1.982,7.175,7.175,0,0,1,.388,2.394v7.9a13.523,13.523,0,0,0,.213,2.61H842.21a7.512,7.512,0,0,1-.187-2.073,5.549,5.549,0,0,1-1.938,1.827,5.949,5.949,0,0,1-3.083.751,5.574,5.574,0,0,1-3.981-1.432A4.553,4.553,0,0,1,831.5-930.519Zm3.867-.281a1.99,1.99,0,0,0,.63,1.489,2.4,2.4,0,0,0,1.742.611,5.189,5.189,0,0,0,1.555-.22,3.894,3.894,0,0,0,1.283-.685,2.977,2.977,0,0,0,.9-1.305,5.634,5.634,0,0,0,.319-2v-.734l-4.241.646a3.032,3.032,0,0,0-1.588.709A1.911,1.911,0,0,0,835.366-930.8Z" transform="translate(-807.54 947.449)" fill="#d9d9e2"/>
      <path id="Path_100" data-name="Path 100" d="M848.861-926.153v-16.269H852.6v2.027a4.5,4.5,0,0,1,2.011-1.844,6.278,6.278,0,0,1,2.792-.657,6.033,6.033,0,0,1,2.966.722,4.5,4.5,0,0,1,1.947,2.1,5.737,5.737,0,0,1,5.269-2.821,5.964,5.964,0,0,1,2.1.367,5.59,5.59,0,0,1,1.789,1.094,4.958,4.958,0,0,1,1.278,1.95,7.674,7.674,0,0,1,.472,2.774v10.558h-3.639v-9.97a3.644,3.644,0,0,0-.782-2.444,2.907,2.907,0,0,0-2.343-.918,3.118,3.118,0,0,0-2.433,1.041,3.722,3.722,0,0,0-.936,2.583v9.708h-3.867v-9.97a3.672,3.672,0,0,0-.774-2.435,2.889,2.889,0,0,0-2.352-.927,3.143,3.143,0,0,0-2.449,1.017,3.735,3.735,0,0,0-.92,2.607v9.708Z" transform="translate(-808.126 947.448)" fill="#d9d9e2"/>
      <path id="Path_101" data-name="Path 101" d="M876.964-919.8v-22.617h3.769v2.179a4.78,4.78,0,0,1,2-1.835,6.694,6.694,0,0,1,3.16-.719,6.833,6.833,0,0,1,5.511,2.37,9.143,9.143,0,0,1,2.005,6.115,9.047,9.047,0,0,1-2.095,6.155,6.991,6.991,0,0,1-5.551,2.412,6.72,6.72,0,0,1-2.972-.63,4.93,4.93,0,0,1-1.962-1.6v8.17Zm3.834-14.507a5.529,5.529,0,0,0,1.221,3.736,3.957,3.957,0,0,0,3.144,1.42,3.982,3.982,0,0,0,3.16-1.412,5.522,5.522,0,0,0,1.221-3.744,5.408,5.408,0,0,0-1.214-3.679,4,4,0,0,0-3.167-1.4,3.979,3.979,0,0,0-3.144,1.4A5.391,5.391,0,0,0,880.8-934.309Z" transform="translate(-809.074 947.445)" fill="#d9d9e2"/>
      <path id="Path_102" data-name="Path 102" d="M894.276-930.833l3.361-.919a2.819,2.819,0,0,0,.963,1.917,3.39,3.39,0,0,0,2.35.776,2.927,2.927,0,0,0,1.794-.49,1.46,1.46,0,0,0,.653-1.2,1.343,1.343,0,0,0-.483-1.039,2.94,2.94,0,0,0-1.432-.61l-2.41-.541a5.912,5.912,0,0,1-3.239-1.77,4.461,4.461,0,0,1-1.133-3.043,4.693,4.693,0,0,1,1.737-3.651,6.223,6.223,0,0,1,4.251-1.524,7.954,7.954,0,0,1,2.339.324,5.848,5.848,0,0,1,1.712.8,5.307,5.307,0,0,1,1.133,1.106,5.469,5.469,0,0,1,.7,1.18,4.713,4.713,0,0,1,.305,1.083l-3.194.919a2.529,2.529,0,0,0-.228-.76,3.435,3.435,0,0,0-.5-.76,2.336,2.336,0,0,0-.912-.618,3.591,3.591,0,0,0-1.351-.237,2.565,2.565,0,0,0-1.68.548,1.642,1.642,0,0,0-.669,1.306,1.473,1.473,0,0,0,.451,1.08,2.262,2.262,0,0,0,1.207.6l2.458.506a6.317,6.317,0,0,1,3.4,1.722,4.226,4.226,0,0,1,1.182,3,5.194,5.194,0,0,1-.386,1.963,5.884,5.884,0,0,1-1.108,1.749,5.2,5.2,0,0,1-1.91,1.286,6.917,6.917,0,0,1-2.651.488,8.037,8.037,0,0,1-2.986-.525,5.547,5.547,0,0,1-2.08-1.353,6.847,6.847,0,0,1-1.159-1.662A4.946,4.946,0,0,1,894.276-930.833Z" transform="translate(-809.657 947.449)" fill="#d9d9e2"/>
    </g>
    <g id="document" transform="translate(774.795 -948.653)">
      <g id="Group_38" data-name="Group 38">
        <g id="Group_35" data-name="Group 35">
          <g id="Group_33" data-name="Group 33" transform="translate(0.809 0.814)">
            <path id="Path_103" data-name="Path 103" d="M776.681-943.777a.669.669,0,0,0,.037-.137,3.329,3.329,0,0,1,1.2-2.125,3.3,3.3,0,0,1,1.608-.69.805.805,0,0,0,.113-.028,3.187,3.187,0,0,1,.348-.018,3.277,3.277,0,0,1,3.27,2.861.5.5,0,0,0,.505.457h.12a.5.5,0,0,0,.505-.457,3.257,3.257,0,0,1,3.246-2.861,3.277,3.277,0,0,1,3.27,2.861.5.5,0,0,0,.505.457h.1a.5.5,0,0,0,.505-.457,3.275,3.275,0,0,1,3.246-2.861,3.3,3.3,0,0,1,2.308.939,3.3,3.3,0,0,1,.939,2.308,3.275,3.275,0,0,1-2.861,3.246.5.5,0,0,0-.457.505v.1a.5.5,0,0,0,.457.505,3.277,3.277,0,0,1,2.861,3.27,3.257,3.257,0,0,1-2.861,3.246.5.5,0,0,0-.457.505v.12a.5.5,0,0,0,.457.505,3.277,3.277,0,0,1,2.861,3.27,3.145,3.145,0,0,1-.015.318.823.823,0,0,0-.037.138,3.324,3.324,0,0,1-1.2,2.125,3.312,3.312,0,0,1-1.608.69.684.684,0,0,0-.114.028,3.41,3.41,0,0,1-.347.018,3.277,3.277,0,0,1-3.27-2.861.5.5,0,0,0-.505-.457h-.12a.5.5,0,0,0-.505.457,3.257,3.257,0,0,1-3.246,2.861,3.278,3.278,0,0,1-3.271-2.861.5.5,0,0,0-.5-.457h-.1a.5.5,0,0,0-.5.457,3.276,3.276,0,0,1-3.247,2.861,3.289,3.289,0,0,1-2.307-.94h0a3.293,3.293,0,0,1-.94-2.307,3.277,3.277,0,0,1,2.862-3.247.5.5,0,0,0,.456-.5v-.1a.5.5,0,0,0-.456-.5,3.278,3.278,0,0,1-2.862-3.271,3.258,3.258,0,0,1,2.862-3.246.5.5,0,0,0,.456-.505v-.12a.5.5,0,0,0-.456-.505,3.276,3.276,0,0,1-2.862-3.27c0-.107.006-.214.016-.318Zm2.849-4.013a.643.643,0,0,0-.123-.021,4.387,4.387,0,0,0-2.791,1.568,4.357,4.357,0,0,0-.98,2.208.544.544,0,0,0,.016.105c-.013.139-.021.28-.021.422a4.4,4.4,0,0,0,2.284,3.824,4.4,4.4,0,0,0-2.284,3.824,4.4,4.4,0,0,0,2.284,3.823,4.347,4.347,0,0,0-2.284,3.824c0,.122,0,.242.014.361a.544.544,0,0,0-.013.169,4.369,4.369,0,0,0,1.251,2.522,4.369,4.369,0,0,0,2.522,1.251.551.551,0,0,0,.17-.013c.119.01.239.015.36.015a4.347,4.347,0,0,0,3.824-2.284,4.4,4.4,0,0,0,3.823,2.284,4.4,4.4,0,0,0,3.824-2.284,4.4,4.4,0,0,0,3.823,2.284c.138,0,.275-.007.411-.019a.636.636,0,0,0,.123.02,4.384,4.384,0,0,0,2.79-1.567,4.357,4.357,0,0,0,.981-2.209.763.763,0,0,0-.016-.105c.014-.139.02-.28.02-.422a4.4,4.4,0,0,0-2.284-3.824,4.4,4.4,0,0,0,2.284-3.823,4.4,4.4,0,0,0-2.284-3.823,4.342,4.342,0,0,0,2.284-3.823c0-.122,0-.242-.015-.361a.583.583,0,0,0,.014-.17,4.369,4.369,0,0,0-1.251-2.521,4.37,4.37,0,0,0-2.522-1.252.58.58,0,0,0-.17.013c-.119-.01-.24-.015-.361-.015a4.342,4.342,0,0,0-3.823,2.284,4.4,4.4,0,0,0-3.824-2.284,4.4,4.4,0,0,0-3.823,2.284,4.4,4.4,0,0,0-3.823-2.284c-.138,0-.275.006-.411.019Z" transform="translate(-775.632 947.811)" fill="#d9d9e2"/>
          </g>
          <g id="Group_34" data-name="Group 34">
            <path id="Path_104" data-name="Path 104" d="M795.759-923.122l-.086-.007-.106-.012c-.121.009-.244.013-.364.013a5.111,5.111,0,0,1-2.668-.756,5.3,5.3,0,0,1-1.152-.953,5.217,5.217,0,0,1-3.827,1.708,5.11,5.11,0,0,1-2.667-.756,5.333,5.333,0,0,1-1.15-.95,5.207,5.207,0,0,1-1.143.95,5.144,5.144,0,0,1-2.686.756c-.107,0-.215,0-.323-.01a1.4,1.4,0,0,1-.27.006l-.023,0-.023,0a5.189,5.189,0,0,1-1.637-.5,5.157,5.157,0,0,1-1.349-.977,5.156,5.156,0,0,1-.977-1.349,5.206,5.206,0,0,1-.5-1.637l0-.023,0-.023a1.4,1.4,0,0,1,.006-.27c-.007-.107-.01-.216-.01-.323a5.138,5.138,0,0,1,.756-2.685,5.166,5.166,0,0,1,.951-1.144,5.315,5.315,0,0,1-.951-1.15,5.107,5.107,0,0,1-.756-2.667,5.217,5.217,0,0,1,1.708-3.827,5.332,5.332,0,0,1-.953-1.152,5.111,5.111,0,0,1-.756-2.668c0-.128,0-.258.015-.387,0-.026-.006-.051-.008-.077l-.007-.086.012-.086a5.156,5.156,0,0,1,1.16-2.616,5.174,5.174,0,0,1,3.3-1.853l.085-.012.086.007c.036,0,.072.007.106.013.122-.009.243-.013.365-.013a5.115,5.115,0,0,1,2.668.757,5.3,5.3,0,0,1,1.151.952,5.218,5.218,0,0,1,3.827-1.708,5.115,5.115,0,0,1,2.668.757,5.275,5.275,0,0,1,1.149.95,5.158,5.158,0,0,1,1.144-.95,5.145,5.145,0,0,1,2.685-.757c.108,0,.216,0,.324.01a1.394,1.394,0,0,1,.27-.006l.023,0,.022,0a5.2,5.2,0,0,1,1.637.5,5.16,5.16,0,0,1,1.35.977,5.16,5.16,0,0,1,.977,1.35,5.2,5.2,0,0,1,.5,1.637l0,.022,0,.023a1.394,1.394,0,0,1-.006.27c.006.107.01.215.01.324a5.144,5.144,0,0,1-.757,2.685,5.156,5.156,0,0,1-.95,1.144,5.271,5.271,0,0,1,.95,1.149,5.111,5.111,0,0,1,.757,2.668,5.218,5.218,0,0,1-1.708,3.827,5.3,5.3,0,0,1,.952,1.151,5.114,5.114,0,0,1,.757,2.668c0,.129,0,.259-.015.388,0,.026.006.052.008.078l.007.086-.012.085a5.171,5.171,0,0,1-1.159,2.616,5.168,5.168,0,0,1-3.3,1.853Zm-3.072-4.8a2.464,2.464,0,0,0,2.467,2.146c.065,0,.13,0,.2-.008.043-.011.088-.02.132-.027l.024,0a2.5,2.5,0,0,0,1.21-.519,2.5,2.5,0,0,0,.906-1.6l0-.023a1.55,1.55,0,0,1,.037-.163c0-.053,0-.106,0-.159a2.464,2.464,0,0,0-2.147-2.466,1.308,1.308,0,0,1-1.171-1.309v-.12a1.3,1.3,0,0,1,1.132-1.3l.024,0,.024,0a2.453,2.453,0,0,0,2.137-2.442,2.464,2.464,0,0,0-2.147-2.466,1.309,1.309,0,0,1-1.171-1.309v-.1a1.3,1.3,0,0,1,1.132-1.3l.024,0,.024,0a2.482,2.482,0,0,0,2.137-2.441,2.48,2.48,0,0,0-.7-1.736,2.48,2.48,0,0,0-1.736-.7,2.451,2.451,0,0,0-2.441,2.137l0,.024,0,.024a1.3,1.3,0,0,1-1.3,1.133h-.1a1.308,1.308,0,0,1-1.309-1.171,2.464,2.464,0,0,0-2.466-2.147,2.453,2.453,0,0,0-2.442,2.137l0,.024,0,.024a1.3,1.3,0,0,1-1.3,1.133h-.12a1.308,1.308,0,0,1-1.309-1.171,2.464,2.464,0,0,0-2.466-2.147c-.066,0-.131,0-.2.008-.043.012-.088.02-.132.028l-.023,0a2.494,2.494,0,0,0-1.211.519,2.5,2.5,0,0,0-.906,1.6l0,.024a1.517,1.517,0,0,1-.036.162c0,.053,0,.106,0,.159a2.464,2.464,0,0,0,2.146,2.467,1.308,1.308,0,0,1,1.172,1.308v.12a1.3,1.3,0,0,1-1.133,1.3l-.023,0-.024,0a2.45,2.45,0,0,0-2.137,2.441,2.464,2.464,0,0,0,2.146,2.467,1.308,1.308,0,0,1,1.172,1.308v.1a1.3,1.3,0,0,1-1.133,1.3l-.023,0-.024,0a2.483,2.483,0,0,0-2.137,2.442,2.478,2.478,0,0,0,.7,1.735,2.478,2.478,0,0,0,1.735.7,2.483,2.483,0,0,0,2.442-2.137l0-.023,0-.024a1.3,1.3,0,0,1,1.3-1.133h.1a1.308,1.308,0,0,1,1.308,1.172,2.464,2.464,0,0,0,2.467,2.146,2.45,2.45,0,0,0,2.441-2.137l0-.023,0-.024a1.3,1.3,0,0,1,1.3-1.133h.12A1.308,1.308,0,0,1,792.688-927.926Zm-13.261-11.485Z" transform="translate(-774.795 948.653)" fill="#d9d9e2"/>
          </g>
        </g>
        <g id="Group_37" data-name="Group 37" transform="translate(8.31 10.478)">
          <g id="Group_36" data-name="Group 36">
            <path id="Path_105" data-name="Path 105" d="M787.858-932.354a4.434,4.434,0,0,1-3.156-1.307,4.436,4.436,0,0,1-1.307-3.157.991.991,0,0,1,.99-.99.991.991,0,0,1,.991.99,2.484,2.484,0,0,0,2.481,2.482,2.485,2.485,0,0,0,2.482-2.482.991.991,0,0,1,.99-.99.991.991,0,0,1,.991.99,4.436,4.436,0,0,1-1.307,3.157A4.437,4.437,0,0,1,787.858-932.354Z" transform="translate(-783.395 937.809)" fill="#d9d9e2"/>
          </g>
        </g>
      </g>
    </g>
  </g>
</svg>
