<svg width="18" height="14" viewBox="0 0 18 14" fill="none" xmlns="http://www.w3.org/2000/svg">
<path d="M17.4683 1.71336C16.8321 1.99478 16.1574 2.17959 15.4666 2.2617C16.1947 1.82622 16.7397 1.14088 16.9999 0.333364C16.3166 0.74003 15.5674 1.02503 14.7866 1.1792C14.2621 0.618013 13.5669 0.245833 12.8091 0.120518C12.0512 -0.00479769 11.2732 0.123773 10.596 0.486241C9.91875 0.84871 9.38025 1.42477 9.06418 2.12486C8.74812 2.82495 8.67221 3.60985 8.84826 4.35753C7.46251 4.28808 6.10687 3.92797 4.86933 3.30058C3.63179 2.6732 2.54003 1.79257 1.66492 0.715864C1.35516 1.24791 1.19238 1.85272 1.19326 2.46836C1.19326 3.6767 1.80826 4.7442 2.74326 5.3692C2.18993 5.35178 1.64878 5.20235 1.16492 4.93336V4.9767C1.16509 5.78145 1.44356 6.56138 1.95313 7.18425C2.46269 7.80712 3.17199 8.23459 3.96076 8.3942C3.4471 8.53339 2.90851 8.55391 2.38576 8.4542C2.60814 9.14689 3.04159 9.7527 3.62542 10.1868C4.20924 10.6209 4.9142 10.8615 5.64159 10.875C4.91866 11.4428 4.0909 11.8625 3.20566 12.1102C2.32041 12.3578 1.39503 12.4286 0.482422 12.3184C2.0755 13.3429 3.93 13.8868 5.82409 13.885C12.2349 13.885 15.7408 8.5742 15.7408 3.96836C15.7408 3.81836 15.7366 3.6667 15.7299 3.51836C16.4123 3.02517 17.0013 2.41421 17.4691 1.7142L17.4683 1.71336Z" fill="#55527C"/>
</svg>
