<svg xmlns="http://www.w3.org/2000/svg" width="109.7" height="32.063" viewBox="0 0 109.7 32.063">
  <g id="Logo_Grey_02" data-name="Logo Grey 02" transform="translate(-283.111 951)">
    <g id="Group_22" data-name="Group 22">
      <path id="Path_76" data-name="Path 76" d="M318.885-930.136l3.444-.941a2.878,2.878,0,0,0,.986,1.963,3.466,3.466,0,0,0,2.407.8,3,3,0,0,0,1.839-.5,1.5,1.5,0,0,0,.668-1.233,1.379,1.379,0,0,0-.494-1.065,3.017,3.017,0,0,0-1.467-.624L323.8-932.3a6.052,6.052,0,0,1-3.318-1.813,4.566,4.566,0,0,1-1.162-3.117,4.809,4.809,0,0,1,1.78-3.74,6.374,6.374,0,0,1,4.354-1.56,8.135,8.135,0,0,1,2.4.331,6.008,6.008,0,0,1,1.754.819,5.417,5.417,0,0,1,1.161,1.135,5.533,5.533,0,0,1,.716,1.208,4.809,4.809,0,0,1,.313,1.109l-3.272.941a2.607,2.607,0,0,0-.233-.779,3.507,3.507,0,0,0-.517-.779,2.39,2.39,0,0,0-.934-.633,3.665,3.665,0,0,0-1.384-.243,2.622,2.622,0,0,0-1.721.562,1.681,1.681,0,0,0-.686,1.337,1.513,1.513,0,0,0,.463,1.108,2.314,2.314,0,0,0,1.236.611l2.519.518a6.475,6.475,0,0,1,3.482,1.764,4.328,4.328,0,0,1,1.21,3.074,5.314,5.314,0,0,1-.395,2.011,6.01,6.01,0,0,1-1.135,1.791,5.314,5.314,0,0,1-1.957,1.316,7.075,7.075,0,0,1-2.715.5,8.225,8.225,0,0,1-3.059-.538,5.687,5.687,0,0,1-2.131-1.385,7.049,7.049,0,0,1-1.187-1.7A5.082,5.082,0,0,1,318.885-930.136Z" fill="#d9d9e2"/>
      <path id="Path_77" data-name="Path 77" d="M331.959-938.515v-3.494h.852a2.458,2.458,0,0,0,1.923-.723,2.736,2.736,0,0,0,.652-1.9v-2.524h3.594v5.148h3.46v3.494h-3.46v7.775a2.17,2.17,0,0,0,.509,1.608,2.25,2.25,0,0,0,1.614.5,6.906,6.906,0,0,0,1.37-.135v3.264a6.453,6.453,0,0,1-2.446.365,4.993,4.993,0,0,1-3.669-1.324,4.907,4.907,0,0,1-1.34-3.654v-8.4Z" fill="#d9d9e2"/>
      <path id="Path_78" data-name="Path 78" d="M343.428-929.814a4.469,4.469,0,0,1,1.388-3.442,6.648,6.648,0,0,1,3.645-1.624l4.279-.653q1.236-.156,1.236-1.125a2.136,2.136,0,0,0-.788-1.711,3.593,3.593,0,0,0-2.363-.664,3.39,3.39,0,0,0-2.4.833,3.257,3.257,0,0,0-1.03,2.125l-3.612-.8a5.918,5.918,0,0,1,2.137-4,7.161,7.161,0,0,1,4.86-1.647,9.621,9.621,0,0,1,3.294.516,5.57,5.57,0,0,1,2.247,1.42,5.886,5.886,0,0,1,1.225,2.031,7.354,7.354,0,0,1,.4,2.453v8.091a13.9,13.9,0,0,0,.217,2.673H354.4a7.637,7.637,0,0,1-.191-2.123,5.69,5.69,0,0,1-1.986,1.872,6.1,6.1,0,0,1-3.159.769,5.711,5.711,0,0,1-4.078-1.467A4.666,4.666,0,0,1,343.428-929.814Zm3.962-.288a2.045,2.045,0,0,0,.645,1.526,2.456,2.456,0,0,0,1.785.625,5.325,5.325,0,0,0,1.592-.225,4,4,0,0,0,1.315-.7,3.039,3.039,0,0,0,.922-1.337,5.759,5.759,0,0,0,.327-2.047v-.753l-4.345.662a3.111,3.111,0,0,0-1.626.726A1.959,1.959,0,0,0,347.39-930.1Z" fill="#d9d9e2"/>
      <path id="Path_79" data-name="Path 79" d="M359.277-933.718a9.142,9.142,0,0,1,1.128-4.538,8.151,8.151,0,0,1,3.076-3.145,8.471,8.471,0,0,1,4.321-1.126,8.969,8.969,0,0,1,2.967.474,6.974,6.974,0,0,1,2.282,1.264,7.734,7.734,0,0,1,1.512,1.729,6.9,6.9,0,0,1,.861,1.988l-3.56,1.291a4.462,4.462,0,0,0-1.312-2.213,3.846,3.846,0,0,0-2.717-.9,4.364,4.364,0,0,0-3.259,1.382,5.236,5.236,0,0,0-1.338,3.8,5.362,5.362,0,0,0,1.346,3.849,4.393,4.393,0,0,0,3.318,1.417,4.717,4.717,0,0,0,1.689-.293,3.447,3.447,0,0,0,1.253-.789,5.214,5.214,0,0,0,.777-.989,4.845,4.845,0,0,0,.46-1.032l3.494,1.275a7.151,7.151,0,0,1-.928,1.958,8.711,8.711,0,0,1-1.554,1.74,7.007,7.007,0,0,1-2.274,1.28,8.673,8.673,0,0,1-2.917.477,8.227,8.227,0,0,1-6.151-2.546A8.741,8.741,0,0,1,359.277-933.718Z" fill="#d9d9e2"/>
      <path id="Path_80" data-name="Path 80" d="M377.031-925.343v-24.79h3.962v14.861l6.4-6.737h5.266l-6.837,7.054,6.987,9.612h-4.864l-4.9-6.82-2.056,2.156v4.664Z" fill="#d9d9e2"/>
    </g>
    <path id="Path_81" data-name="Path 81" d="M302.144-936.774a9.234,9.234,0,0,0-.946-.049h-8.943v3.709H301.2a9.234,9.234,0,0,0,.946-.049,5.359,5.359,0,0,1,4.42,5.283,5.359,5.359,0,0,1-5.366,5.366h-8.943v3.577H301.2a8.947,8.947,0,0,0,8.943-8.943,8.932,8.932,0,0,0-3.492-7.089,8.929,8.929,0,0,0,3.492-7.088A8.947,8.947,0,0,0,301.2-951h-8.943v3.577H301.2a5.359,5.359,0,0,1,5.366,5.366,5.359,5.359,0,0,1-4.42,5.283Zm-10.09-3.431H301v-3.577h-8.943a8.947,8.947,0,0,0-8.943,8.943,8.946,8.946,0,0,0,8.943,8.943H301v-3.577h-8.943a5.359,5.359,0,0,1-5.366-5.366A5.359,5.359,0,0,1,292.054-940.205Z" fill="#d9d9e2"/>
  </g>
</svg>
