<svg xmlns="http://www.w3.org/2000/svg" width="123.287" height="26.671" viewBox="0 0 123.287 26.671">
  <g id="Logo_Grey" data-name="Logo Grey" transform="translate(-949.809 949.03)">
    <g id="Group_3" data-name="Group 3" transform="translate(-1 -1)">
      <g id="Group_2" data-name="Group 2">
        <g id="Layer0_0_1_STROKES" data-name="Layer0 0 1 STROKES">
          <path id="Path_5" data-name="Path 5" d="M960.271-921.36a1.37,1.37,0,0,1-1.062-.437,1.511,1.511,0,0,1-.051-2.135l.051-.051,15.49-15.49a1.547,1.547,0,0,1,2.186.022,1.546,1.546,0,0,1,0,2.164L961.333-921.8A1.37,1.37,0,0,1,960.271-921.36Zm7.745,0a1.563,1.563,0,0,1-.874-.25l-.063-.062a1.534,1.534,0,0,1-.4-2.132,1.532,1.532,0,0,1,2.084-.429l.063.062a1.589,1.589,0,0,1,.437,2.124A1.44,1.44,0,0,1,968.016-921.36Zm-12.492-2.873a1.368,1.368,0,0,1-1.061-.437,1.51,1.51,0,0,1-.052-2.135c.017-.017.034-.035.052-.051l4.247-4.248a1.546,1.546,0,0,1,2.186.023,1.546,1.546,0,0,1,0,2.164l-4.247,4.247A2.128,2.128,0,0,1,955.524-924.233Zm18.113-2.748a1.368,1.368,0,0,1-1.062-.438,1.51,1.51,0,0,1-.051-2.134l.051-.052,2.124-2.123a1.545,1.545,0,0,1,2.186.022,1.546,1.546,0,0,1,0,2.164l-2.124,2.123A1.709,1.709,0,0,1,973.637-926.981Zm-21.11-1.936a1.371,1.371,0,0,1-1.062-.438,1.509,1.509,0,0,1-.052-2.134c.017-.018.034-.035.052-.052h0a1.509,1.509,0,0,1,2.134-.051c.018.016.035.034.052.051a1.51,1.51,0,0,1,.051,2.135l-.051.051h0A2.121,2.121,0,0,1,952.527-928.917Zm11.367-3.748a1.37,1.37,0,0,1-1.062-.437,1.509,1.509,0,0,1-.052-2.134c.017-.018.034-.035.052-.052l8.869-8.869a1.545,1.545,0,0,1,2.186.022,1.546,1.546,0,0,1,0,2.164l-8.869,8.869A1.506,1.506,0,0,1,963.894-932.665Zm-7.183-.437a1.37,1.37,0,0,1-1.062-.437,1.511,1.511,0,0,1-.051-2.135l.051-.051,11.368-11.493a1.51,1.51,0,0,1,2.134-.051c.018.016.035.034.052.051a1.51,1.51,0,0,1,.051,2.135l-.051.051-11.43,11.493A1.777,1.777,0,0,1,956.711-933.1Zm-4.372-3.31a1.371,1.371,0,0,1-1.062-.438,1.51,1.51,0,0,1-.051-2.134c.016-.018.034-.035.051-.052l4.5-4.434a1.545,1.545,0,0,1,2.186.022,1.546,1.546,0,0,1,0,2.164l-4.5,4.434A2.118,2.118,0,0,1,952.339-936.412Zm8.307-8.307a1.547,1.547,0,0,1-1.561-1.532.145.145,0,0,1,0-.03v-.187a1.56,1.56,0,0,1,1.56-1.562,1.561,1.561,0,0,1,1.562,1.56v.127A1.686,1.686,0,0,1,960.646-944.719Z" fill="#d9d9e2"/>
        </g>
      </g>
    </g>
    <g id="Group_42" data-name="Group 42" transform="translate(-2.096 -0.734)">
      <path id="Path_121" data-name="Path 121" d="M1046.961-942.737v-4.314h-2.7v4.314h-2.328v2.421h2.328v8.225c0,3.507,2.2,5.059,5.338,5.059h1.521v-2.421h-1.469a2.349,2.349,0,0,1-2.669-2.638v-8.225h4.137v-2.421Z" transform="translate(-1.121 -0.024)" fill="#d9d9e2"/>
      <path id="Path_122" data-name="Path 122" d="M1055.93-942.737v-4.314h-2.7v4.314H1050.9v2.421h2.329v8.225c0,3.507,2.2,5.059,5.337,5.059h1.522v-2.421h-1.47a2.349,2.349,0,0,1-2.669-2.638v-8.225h4.137v-2.421Z" transform="translate(-1.297 -0.024)" fill="#d9d9e2"/>
      <path id="Path_123" data-name="Path 123" d="M992.953-942.862a7.4,7.4,0,0,0-5.617,2.328v-2.11H984.6v21.126h2.732v-7.429a7.689,7.689,0,0,0,5.617,2.256,8.087,8.087,0,0,0,8.086-8.086A8.087,8.087,0,0,0,992.953-942.862Zm-.155,13.657a5.56,5.56,0,0,1-5.55-5.561,5.561,5.561,0,0,1,5.55-5.55,5.559,5.559,0,0,1,5.55,5.56A5.562,5.562,0,0,1,992.8-929.206Z" transform="translate(0 -0.106)" fill="#d9d9e2"/>
      <rect id="Rectangle_1" data-name="Rectangle 1" width="2.731" height="21.26" transform="translate(1020.679 -948.296)" fill="#d9d9e2"/>
      <path id="Path_124" data-name="Path 124" d="M1016.292-942.635v2.07a7.761,7.761,0,0,0-5.649-2.3,8.086,8.086,0,0,0-8.085,8.085,8.086,8.086,0,0,0,8.085,8.086,7.494,7.494,0,0,0,5.649-2.359l.021,2.132h2.7v-15.715Zm-5.458,13.45h-.015a5.56,5.56,0,0,1-5.55-5.561,5.56,5.56,0,0,1,5.55-5.55,5.55,5.55,0,0,1,5.56,5.55A5.552,5.552,0,0,1,1010.834-929.185Z" transform="translate(-0.351 -0.106)" fill="#d9d9e2"/>
      <path id="Path_125" data-name="Path 125" d="M1041.856-935.345a7.59,7.59,0,0,0-7.977-7.759,7.923,7.923,0,0,0-8.132,7.7c0,.134,0,.264,0,.4a7.865,7.865,0,0,0,8.132,8.162,8.2,8.2,0,0,0,7.418-3.911l-2.111-1.273a5.745,5.745,0,0,1-5.244,2.731,5.193,5.193,0,0,1-5.463-4.811h13.284A6.277,6.277,0,0,0,1041.856-935.345Zm-13.314-.962a5.172,5.172,0,0,1,5.337-4.438,4.975,4.975,0,0,1,5.173,4.438Z" transform="translate(-0.805 -0.101)" fill="#d9d9e2"/>
      <path id="Path_126" data-name="Path 126" d="M1076.677-935.345a7.59,7.59,0,0,0-7.977-7.759,7.921,7.921,0,0,0-8.131,7.7c-.006.134-.006.264,0,.4a7.865,7.865,0,0,0,8.131,8.162,8.194,8.194,0,0,0,7.418-3.911l-2.11-1.273a5.746,5.746,0,0,1-5.245,2.731,5.194,5.194,0,0,1-5.463-4.811h13.284A6.2,6.2,0,0,0,1076.677-935.345Zm-13.314-.962a5.172,5.172,0,0,1,5.338-4.438,4.974,4.974,0,0,1,5.173,4.438Z" transform="translate(-1.486 -0.101)" fill="#d9d9e2"/>
    </g>
  </g>
</svg>
