<svg width="36" height="36" viewBox="0 0 36 36" fill="none" xmlns="http://www.w3.org/2000/svg">
<path d="M9 16.5C8.17157 16.5 7.5 17.1716 7.5 18C7.5 18.8284 8.17157 19.5 9 19.5H27C27.8284 19.5 28.5 18.8284 28.5 18C28.5 17.1716 27.8284 16.5 27 16.5H9Z" fill="#D9D9E2"/>
<path d="M16.9393 25.9393C16.3535 26.5251 16.3535 27.4749 16.9393 28.0607C17.5251 28.6464 18.4749 28.6464 19.0607 28.0607L28.0607 19.0607C28.6285 18.4928 28.6484 17.5784 28.1057 16.9864L19.8557 7.98641C19.2959 7.37573 18.3471 7.33448 17.7364 7.89427C17.1257 8.45405 17.0845 9.4029 17.6443 10.0136L24.9238 17.9549L16.9393 25.9393Z" fill="#D9D9E2"/>
</svg>
