<svg xmlns="http://www.w3.org/2000/svg" width="108.451" height="25.245" viewBox="0 0 108.451 25.245">
  <g id="Logo_Grey_03" data-name="Logo Grey 03" transform="translate(-454.167 882.772)">
    <path id="Path_114" data-name="Path 114" d="M528.865-860.917c0-1.794.932-3.052,3.453-4.076l5.481-2.19v-2c0-2.422-.967-3.617-2.592-3.617-1.462,0-2.358,1.031-2.556,3.186-.163,1.748-.961,2.492-2.19,2.492a1.9,1.9,0,0,1-1.937-1.859,1.809,1.809,0,0,1,.01-.231c0-2.656,3.057-4.95,7.07-4.95,4.753,0,6.943,2.026,6.989,5.876l.029,7.274c0,.926.5,1.49,1.229,1.49a1.6,1.6,0,0,0,1.362-.727l.163.064a3.867,3.867,0,0,1-3.913,2.79,3.334,3.334,0,0,1-3.524-2.79,6.358,6.358,0,0,1-5.242,2.825A3.547,3.547,0,0,1,528.865-860.917Zm6.575.932a3.169,3.169,0,0,0,2.389-1.164l-.029-4.781-2.026.926c-1.748.8-2.289,1.66-2.289,2.987a1.876,1.876,0,0,0,1.708,2.028,1.915,1.915,0,0,0,.248,0Z" transform="translate(-1.598 -0.185)" fill="#d9d9e2"/>
    <path id="Path_115" data-name="Path 115" d="M553.132-874.316a5.884,5.884,0,0,1,4.514,1.962v-6.482c0-.53-.035-.7-.5-.932l-1.462-.763v-.582l6.872-1.66v21.583c0,.5.1.629.529.926l1.5,1v.582l-6.942.9v-2.592a6.274,6.274,0,0,1-5.242,2.825c-3.715,0-6.6-3.023-6.6-8.037C545.794-871,548.916-874.316,553.132-874.316Zm1.525,14.21a3.655,3.655,0,0,0,2.988-1.462v-9.2a3.7,3.7,0,0,0-2.912-1.328c-2.289,0-3.984,2.126-3.984,6.045S552.433-860.106,554.657-860.106Z" transform="translate(-1.969)" fill="#d9d9e2"/>
    <path id="Path_116" data-name="Path 116" d="M454.167-865.53c0-5.014,3.354-8.666,7.8-8.666,4.019,0,6.738,2.557,7.041,6.988H458.919v.1c0,4.415,2.19,6.838,5.078,6.838a5.771,5.771,0,0,0,4.66-2.388l.162.1a6.9,6.9,0,0,1-6.936,5.213C457.521-857.33,454.167-860.65,454.167-865.53Zm4.85-3.086h4.91c.367,0,.5-.134.5-.5,0-2.33-1.061-3.652-2.493-3.652S459.315-871.307,459.017-868.617Z" transform="translate(0 -0.184)" fill="#d9d9e2"/>
    <path id="Path_117" data-name="Path 117" d="M486.9-865.53c0-5.014,3.354-8.666,7.8-8.666,4.018,0,6.738,2.557,7.04,6.988H491.654v.1c0,4.415,2.19,6.838,5.078,6.838a5.768,5.768,0,0,0,4.659-2.388l.163.1a6.9,6.9,0,0,1-6.937,5.213C490.255-857.33,486.9-860.65,486.9-865.53Zm4.851-3.086h4.909c.367,0,.5-.134.5-.5,0-2.33-1.06-3.652-2.492-3.652S492.05-871.307,491.752-868.617Z" transform="translate(-0.704 -0.184)" fill="#d9d9e2"/>
    <path id="Path_118" data-name="Path 118" d="M511.9-865.53c0-5.014,3.354-8.666,7.8-8.666,4.019,0,6.738,2.557,7.041,6.988H516.651v.1c0,4.415,2.19,6.838,5.078,6.838a5.768,5.768,0,0,0,4.659-2.388l.163.1a6.9,6.9,0,0,1-6.936,5.213C515.253-857.33,511.9-860.65,511.9-865.53Zm4.85-3.086h4.91c.367,0,.5-.134.5-.5,0-2.33-1.061-3.652-2.493-3.652S517.047-871.307,516.749-868.617Z" transform="translate(-1.241 -0.184)" fill="#d9d9e2"/>
    <path id="Path_119" data-name="Path 119" d="M510.269-859.273l1.428.2v1.13h-8.928v-1.13l1.455-.2c.431-.069.583-.233.583-.7v-18.864a.816.816,0,0,0-.53-.932l-1.491-.763v-.582l6.937-1.66V-860C509.7-859.506,509.8-859.343,510.269-859.273Z" transform="translate(-1.045)" fill="#d9d9e2"/>
    <path id="Path_120" data-name="Path 120" d="M470.553-871.494c-.332-.7-.466-.8-1.066-.932l-.762-.134v-1.13h8.9v1.13l-1.06.134c-.734.1-.9.431-.583,1.263l3.454,8.5c.1.267.332.267.431,0l3.419-8.264c.367-.967.134-1.4-.833-1.531l-.728-.1v-1.13h5.311v1.13l-.4.069a1.828,1.828,0,0,0-1.531,1.328l-5.905,13.61h-2.626Z" transform="translate(-0.313 -0.195)" fill="#d9d9e2"/>
  </g>
</svg>
