<svg xmlns="http://www.w3.org/2000/svg" width="59.595" height="55.87" viewBox="0 0 59.595 55.87">
  <g id="Logo_Mark" data-name="Logo Mark" transform="translate(-8 -8)">
    <path id="Path_1" data-name="Path 1" d="M47.875,63.87a6.353,6.353,0,0,1-6.353-6.353h0c0-3.022,2.2-5.525,4.879-6.923a18.623,18.623,0,1,0-17.208,0c2.679,1.4,4.879,3.9,4.879,6.923h0a6.353,6.353,0,0,1-6.353,6.353H21.036A13.036,13.036,0,0,1,8,50.834V22.9A14.9,14.9,0,0,1,22.9,8H52.7a14.9,14.9,0,0,1,14.9,14.9V50.834A13.036,13.036,0,0,1,54.558,63.87Z" fill="#55527c" fill-rule="evenodd"/>
    <path id="Path_2" data-name="Path 2" d="M27.449,32.9A7.449,7.449,0,1,0,20,25.449,7.449,7.449,0,0,0,27.449,32.9Z" transform="translate(10.348 8.623)" fill="#55527c" opacity="0.3"/>
  </g>
</svg>
