<svg id="forest_webflow_mark" xmlns="http://www.w3.org/2000/svg" width="324.393" height="324.393" viewBox="0 0 324.393 324.393">
  <g id="Group_5" data-name="Group 5">
    <path id="Path_35" data-name="Path 35" d="M324.393,162.2c0,89.208-72.988,162.2-162.2,162.2S0,251.4,0,162.2,72.988,0,162.2,0,324.393,72.988,324.393,162.2Z" fill="#4353ff"/>
  </g>
  <path id="Path_36" data-name="Path 36" d="M231.173,166.134s-14.03,43.955-15.084,47.686c-.406-3.731-10.624-82.72-10.624-82.72-23.924,0-36.656,16.95-43.388,35.034,0,0-17.031,44.117-18.409,47.848-.081-3.487-2.6-47.361-2.6-47.361-1.46-22.059-21.572-35.44-37.873-35.44l19.626,119.7c25.059-.081,38.522-17.031,45.577-35.034,0,0,15-38.927,15.652-40.711.162,1.7,10.786,75.746,10.786,75.746,25.059,0,38.6-15.9,45.9-33.25L275.777,131.1C250.961,131.1,237.9,148.05,231.173,166.134Z" transform="translate(-19.507 -24.78)" fill="#fff"/>
</svg>
