<svg width="32" height="32" viewBox="0 0 32 32" fill="none" xmlns="http://www.w3.org/2000/svg">
<path opacity="0.5" d="M7.99935 14.6668C7.26297 14.6668 6.66602 15.2638 6.66602 16.0002C6.66602 16.7365 7.26297 17.3335 7.99935 17.3335H16.9993C17.7357 17.3335 18.3327 16.7365 18.3327 16.0002C18.3327 15.2638 17.7357 14.6668 16.9993 14.6668H7.99935Z" fill="#FFC261"/>
<path d="M15.0578 23.0574C14.5371 23.5781 14.5371 24.4223 15.0578 24.943C15.5785 25.4637 16.4228 25.4637 16.9435 24.943L24.9435 16.943C25.4482 16.4382 25.4659 15.6254 24.9835 15.0992L17.6502 7.0992C17.1526 6.55637 16.3092 6.5197 15.7663 7.01729C15.2235 7.51488 15.1869 8.3583 15.6844 8.90113L22.1551 15.9601L15.0578 23.0574Z" fill="#FFC261"/>
</svg>
