<svg width="149" height="93" viewBox="0 0 149 93" fill="none" xmlns="http://www.w3.org/2000/svg">
<path d="M50.4008 71.2C52.0008 71.2 53.4008 69.9 53.4008 68.2C53.4008 66.6 52.1008 65.2 50.4008 65.2C48.8008 65.2 47.4008 66.5 47.4008 68.2C47.5008 69.9 48.8008 71.2 50.4008 71.2Z" fill="#FFCDCF"/>
<path d="M50.4008 93C52.0008 93 53.4008 91.7 53.4008 90C53.4008 88.4 52.1008 87 50.4008 87C48.8008 87 47.4008 88.3 47.4008 90C47.5008 91.7 48.8008 93 50.4008 93Z" fill="#FFCDCF"/>
<path d="M26.7008 71.2C28.3008 71.2 29.7008 69.9 29.7008 68.2C29.7008 66.6 28.4008 65.2 26.7008 65.2C25.1008 65.2 23.7008 66.5 23.7008 68.2C23.8008 69.9 25.1008 71.2 26.7008 71.2Z" fill="#FFCDCF"/>
<path d="M26.7008 93C28.3008 93 29.7008 91.7 29.7008 90C29.7008 88.4 28.4008 87 26.7008 87C25.1008 87 23.7008 88.3 23.7008 90C23.8008 91.7 25.1008 93 26.7008 93Z" fill="#FFCDCF"/>
<path d="M3.0008 71.2C4.6008 71.2 6.0008 69.9 6.0008 68.2C6.0008 66.6 4.70079 65.2 3.0008 65.2C1.40079 65.2 0.000795774 66.5 0.000795625 68.2C0.000795476 69.9 1.40079 71.2 3.0008 71.2Z" fill="#FFCDCF"/>
<path d="M3.00079 93C4.6008 93 6.00079 91.7 6.00079 90C6.00079 88.4 4.70079 87 3.00079 87C1.40079 87 0.000793868 88.3 0.000793719 90C0.000793571 91.7 1.40079 93 3.00079 93Z" fill="#FFCDCF"/>
<path d="M50.4008 5.99999C52.0008 5.99999 53.4008 4.69999 53.4008 2.99999C53.4008 1.39999 52.1008 -8.41007e-06 50.4008 -8.55869e-06C48.8008 -8.69857e-06 47.4008 1.29999 47.4008 2.99999C47.5008 4.69999 48.8008 5.99999 50.4008 5.99999Z" fill="#FFCDCF"/>
<path d="M50.4008 27.8C52.0008 27.8 53.4008 26.5 53.4008 24.8C53.4008 23.2 52.1008 21.8 50.4008 21.8C48.8008 21.8 47.4008 23.1 47.4008 24.8C47.5008 26.4 48.8008 27.8 50.4008 27.8Z" fill="#FFCDCF"/>
<path d="M50.4008 49.5C52.0008 49.5 53.4008 48.2 53.4008 46.5C53.4008 44.9 52.1008 43.5 50.4008 43.5C48.8008 43.5 47.4008 44.8 47.4008 46.5C47.5008 48.2 48.8008 49.5 50.4008 49.5Z" fill="#FFCDCF"/>
<path d="M26.7008 5.99999C28.3008 5.99999 29.7008 4.69999 29.7008 2.99999C29.7008 1.39999 28.4008 -1.0482e-05 26.7008 -1.06306e-05C25.1008 -1.07705e-05 23.7008 1.29999 23.7008 2.99999C23.8008 4.69999 25.1008 5.99999 26.7008 5.99999Z" fill="#FFCDCF"/>
<path d="M26.7008 27.8C28.3008 27.8 29.7008 26.5 29.7008 24.8C29.7008 23.2 28.4008 21.8 26.7008 21.8C25.1008 21.8 23.7008 23.1 23.7008 24.8C23.8008 26.4 25.1008 27.8 26.7008 27.8Z" fill="#FFCDCF"/>
<path d="M26.7008 49.5C28.3008 49.5 29.7008 48.2 29.7008 46.5C29.7008 44.9 28.4008 43.5 26.7008 43.5C25.1008 43.5 23.7008 44.8 23.7008 46.5C23.8008 48.2 25.1008 49.5 26.7008 49.5Z" fill="#FFCDCF"/>
<path d="M3.0008 5.99999C4.60081 5.99999 6.0008 4.69998 6.0008 2.99999C6.0008 1.39999 4.7008 -1.25539e-05 3.0008 -1.27025e-05C1.4008 -1.28424e-05 0.000801474 1.29999 0.000801325 2.99999C0.000801176 4.69998 1.40079 5.99999 3.0008 5.99999Z" fill="#FFCDCF"/>
<path d="M3.0008 27.8C4.60081 27.8 6.0008 26.5 6.0008 24.8C6.0008 23.2 4.7008 21.8 3.0008 21.8C1.40079 21.8 0.000799568 23.1 0.000799419 24.8C0.000799279 26.4 1.40079 27.8 3.0008 27.8Z" fill="#FFCDCF"/>
<path d="M3.0008 49.5C4.6008 49.5 6.0008 48.2 6.0008 46.5C6.0008 44.9 4.70079 43.5 3.0008 43.5C1.40079 43.5 0.000797671 44.8 0.000797522 46.5C0.000797374 48.2 1.40079 49.5 3.0008 49.5Z" fill="#FFCDCF"/>
<path d="M145.301 71.2C146.901 71.2 148.301 69.9 148.301 68.2C148.301 66.6 147.001 65.2 145.301 65.2C143.701 65.2 142.301 66.5 142.301 68.2C142.301 69.9 143.601 71.2 145.301 71.2Z" fill="#FFCDCF"/>
<path d="M145.301 93C146.901 93 148.301 91.7 148.301 90C148.301 88.4 147.001 87 145.301 87C143.701 87 142.301 88.3 142.301 90C142.301 91.7 143.601 93 145.301 93Z" fill="#FFCDCF"/>
<path d="M121.601 71.2C123.201 71.2 124.601 69.9 124.601 68.2C124.601 66.6 123.301 65.2 121.601 65.2C120.001 65.2 118.601 66.5 118.601 68.2C118.601 69.9 119.901 71.2 121.601 71.2Z" fill="#FFCDCF"/>
<path d="M121.601 93C123.201 93 124.601 91.7 124.601 90C124.601 88.4 123.301 87 121.601 87C120.001 87 118.601 88.3 118.601 90C118.601 91.7 119.901 93 121.601 93Z" fill="#FFCDCF"/>
<path d="M97.9008 71.2C99.5008 71.2 100.901 69.9 100.901 68.2C100.901 66.6 99.6008 65.2 97.9008 65.2C96.3008 65.2 94.9008 66.5 94.9008 68.2C94.9008 69.9 96.2008 71.2 97.9008 71.2Z" fill="#FFCDCF"/>
<path d="M97.9008 93C99.5008 93 100.901 91.7 100.901 90C100.901 88.4 99.6008 87 97.9008 87C96.3008 87 94.9008 88.3 94.9008 90C94.9008 91.7 96.2008 93 97.9008 93Z" fill="#FFCDCF"/>
<path d="M71.7008 69.9C71.9008 70.2 72.2008 70.5 72.5008 70.7C73.0008 71 73.5008 71.2 74.2008 71.2C74.6008 71.2 75.0008 71.1 75.4008 71C75.8008 70.8 76.1008 70.6 76.3008 70.4C76.8008 69.9 77.2008 69.1 77.2008 68.3C77.2008 67.5 76.9008 66.7 76.3008 66.2C76.0008 65.9 75.7008 65.7 75.4008 65.6C75.0008 65.4 74.7008 65.4 74.2008 65.4C73.6008 65.4 73.0008 65.6 72.5008 65.9C72.2008 66.1 71.9008 66.4 71.7008 66.7C71.5008 67 71.3008 67.4 71.3008 67.8C71.3008 68 71.2008 68.2 71.2008 68.4C71.2008 68.6 71.2008 68.8 71.3008 69C71.3008 69.3 71.5008 69.6 71.7008 69.9Z" fill="#FFCDCF"/>
<path d="M71.7008 91.7C71.9008 92 72.2008 92.3 72.5008 92.5C73.0008 92.8 73.5008 93 74.2008 93C74.6008 93 75.0008 92.9 75.4008 92.8C75.8008 92.6 76.1008 92.4 76.3008 92.2C76.8008 91.7 77.2008 90.9 77.2008 90.1C77.2008 89.3 76.9008 88.5 76.3008 88C76.0008 87.7 75.7008 87.5 75.4008 87.4C75.0008 87.2 74.7008 87.2 74.2008 87.2C73.6008 87.2 73.0008 87.4 72.5008 87.7C72.2008 87.9 71.9008 88.2 71.7008 88.5C71.5008 88.8 71.3008 89.2 71.3008 89.6C71.3008 89.8 71.2008 90 71.2008 90.2C71.2008 90.4 71.2008 90.6 71.3008 90.8C71.3008 91 71.5008 91.4 71.7008 91.7Z" fill="#FFCDCF"/>
<path d="M145.301 6C146.901 6 148.301 4.7 148.301 3C148.301 1.4 147.001 -1.1365e-07 145.301 -2.62268e-07C143.701 -4.02145e-07 142.301 1.3 142.301 3C142.301 4.7 143.601 6 145.301 6Z" fill="#FFCDCF"/>
<path d="M145.301 27.8C146.901 27.8 148.301 26.5 148.301 24.8C148.301 23.2 147.001 21.8 145.301 21.8C143.701 21.8 142.301 23.1 142.301 24.8C142.301 26.4 143.601 27.8 145.301 27.8Z" fill="#FFCDCF"/>
<path d="M145.301 49.5C146.901 49.5 148.301 48.2 148.301 46.5C148.301 44.9 147.001 43.5 145.301 43.5C143.701 43.5 142.301 44.8 142.301 46.5C142.301 48.2 143.601 49.5 145.301 49.5Z" fill="#FFCDCF"/>
<path d="M121.601 6C123.201 6 124.601 4.69999 124.601 3C124.601 1.4 123.301 -2.18557e-06 121.601 -2.33419e-06C120.001 -2.47407e-06 118.601 1.3 118.601 3C118.601 4.69999 119.901 6 121.601 6Z" fill="#FFCDCF"/>
<path d="M121.601 27.8C123.201 27.8 124.601 26.5 124.601 24.8C124.601 23.2 123.301 21.8 121.601 21.8C120.001 21.8 118.601 23.1 118.601 24.8C118.601 26.4 119.901 27.8 121.601 27.8Z" fill="#FFCDCF"/>
<path d="M121.601 49.5C123.201 49.5 124.601 48.2 124.601 46.5C124.601 44.9 123.301 43.5 121.601 43.5C120.001 43.5 118.601 44.8 118.601 46.5C118.601 48.2 119.901 49.5 121.601 49.5Z" fill="#FFCDCF"/>
<path d="M97.9008 6C99.5008 6 100.901 4.69999 100.901 3C100.901 1.4 99.6008 -4.25749e-06 97.9008 -4.40611e-06C96.3008 -4.54599e-06 94.9008 1.3 94.9008 3C94.9008 4.69999 96.2008 6 97.9008 6Z" fill="#FFCDCF"/>
<path d="M97.9008 27.8C99.5008 27.8 100.901 26.5 100.901 24.8C100.901 23.2 99.6008 21.8 97.9008 21.8C96.3008 21.8 94.9008 23.1 94.9008 24.8C94.9008 26.4 96.2008 27.8 97.9008 27.8Z" fill="#FFCDCF"/>
<path d="M97.9008 49.5C99.5008 49.5 100.901 48.2 100.901 46.5C100.901 44.9 99.6008 43.5 97.9008 43.5C96.3008 43.5 94.9008 44.8 94.9008 46.5C94.9008 48.2 96.2008 49.5 97.9008 49.5Z" fill="#FFCDCF"/>
<path d="M71.7008 4.70001C71.9008 5.00001 72.2008 5.3 72.5008 5.49999C73.0008 5.8 73.5008 5.99999 74.2008 5.99999C74.6008 5.99999 75.0008 5.89998 75.4008 5.79998C75.8008 5.59998 76.1008 5.4 76.3008 5.20001C76.8008 4.70001 77.2008 3.89997 77.2008 3.09997C77.2008 2.29997 76.9008 1.49999 76.3008 0.999994C76.0008 0.699991 75.7008 0.499956 75.4008 0.399957C75.0008 0.299958 74.7008 0.200006 74.2008 0.200006C73.6008 0.200006 73.0008 0.400003 72.5008 0.700006C72.2008 0.900003 71.9008 1.19999 71.7008 1.49999C71.5008 1.8 71.3008 2.19997 71.3008 2.59997C71.3008 2.79997 71.2008 3.00001 71.2008 3.20001C71.2008 3.4 71.2008 3.59998 71.3008 3.79998C71.3008 4.09998 71.5008 4.4 71.7008 4.70001Z" fill="#FFCDCF"/>
<path d="M71.7008 26.5C71.9008 26.8 72.2008 27.1 72.5008 27.3C73.0008 27.6 73.5008 27.8 74.2008 27.8C74.6008 27.8 75.0008 27.7 75.4008 27.6C75.8008 27.4 76.1008 27.2 76.3008 27C76.8008 26.5 77.2008 25.7 77.2008 24.9C77.2008 24.1 76.9008 23.3 76.3008 22.8C76.0008 22.5 75.7008 22.3 75.4008 22.2C75.0008 22.1 74.7008 22 74.2008 22C73.6008 22 73.0008 22.2 72.5008 22.5C72.2008 22.7 71.9008 23 71.7008 23.3C71.5008 23.6 71.3008 24 71.3008 24.4C71.3008 24.6 71.2008 24.8 71.2008 25C71.2008 25.2 71.2008 25.4 71.3008 25.6C71.3008 25.8 71.5008 26.2 71.7008 26.5Z" fill="#FFCDCF"/>
<path d="M71.7008 48.2C71.9008 48.5 72.2008 48.8 72.5008 49C73.0008 49.3 73.5008 49.5 74.2008 49.5C74.6008 49.5 75.0008 49.4 75.4008 49.3C75.8008 49.2 76.1008 48.9 76.3008 48.7C76.8008 48.2 77.2008 47.4 77.2008 46.6C77.2008 45.8 76.9008 45 76.3008 44.5C76.0008 44.2 75.7008 44 75.4008 43.9C75.0008 43.7 74.7008 43.7 74.2008 43.7C73.6008 43.7 73.0008 43.9 72.5008 44.2C72.2008 44.4 71.9008 44.7 71.7008 45C71.5008 45.3 71.3008 45.7 71.3008 46.1C71.3008 46.3 71.2008 46.5 71.2008 46.7C71.2008 46.9 71.2008 47.1 71.3008 47.3C71.3008 47.5 71.5008 47.9 71.7008 48.2Z" fill="#FFCDCF"/>
</svg>
