<svg xmlns="http://www.w3.org/2000/svg" width="130.778" height="23.869" viewBox="0 0 130.778 23.869">
  <g id="Logo_Grey_06" data-name="Logo Grey 06" transform="translate(-613.222 946.425)">
    <g id="Group_25" data-name="Group 25">
      <path id="Path_89" data-name="Path 89" d="M653.986-926.259h-2.032l-6.072-16.471h2.157l4.9,13.971H653l4.9-13.971h2.157Z" fill="#d9d9e2"/>
      <path id="Path_90" data-name="Path 90" d="M674.484-928.108v1.849H664.279V-942.73h10.205v1.849h-8.15v5.285h7.727v1.826h-7.727v5.662Z" fill="#d9d9e2"/>
      <path id="Path_91" data-name="Path 91" d="M681.558-926.259h-2.031V-942.73h2l9.018,12.933h.1V-942.73h2.032v16.471h-2l-9.017-12.887h-.1Z" fill="#d9d9e2"/>
      <path id="Path_92" data-name="Path 92" d="M700.264-942.73v10.558a4.193,4.193,0,0,0,1.193,3.1,4.451,4.451,0,0,0,3.293,1.193,4.451,4.451,0,0,0,3.293-1.193,4.193,4.193,0,0,0,1.193-3.1V-942.73h2.055v10.7a5.764,5.764,0,0,1-1.764,4.366,6.629,6.629,0,0,1-4.777,1.684,6.629,6.629,0,0,1-4.777-1.684,5.766,5.766,0,0,1-1.763-4.366v-10.7Z" fill="#d9d9e2"/>
      <path id="Path_93" data-name="Path 93" d="M727.029-928.108v1.849h-10.2V-942.73h10.2v1.849h-8.15v5.285h7.728v1.826h-7.728v5.662Z" fill="#d9d9e2"/>
      <path id="Path_94" data-name="Path 94" d="M734.127-932.777v6.518h-2.055V-942.73h6.175a5.362,5.362,0,0,1,3.818,1.341,4.655,4.655,0,0,1,1.433,3.567,5.062,5.062,0,0,1-.879,2.979,4.552,4.552,0,0,1-2.431,1.747L744-926.259h-2.408l-3.528-6.518Zm0-8.127v6.312h3.937a3.414,3.414,0,0,0,2.449-.821,3.083,3.083,0,0,0,.862-2.34,3,3,0,0,0-.9-2.318,3.546,3.546,0,0,0-2.5-.833Z" fill="#d9d9e2"/>
    </g>
    <g id="Group_30" data-name="Group 30">
      <g id="Group_27" data-name="Group 27">
        <g id="Layer0_0_1_STROKES" data-name="Layer0 0 1 STROKES">
          <g id="Group_26" data-name="Group 26">
            <path id="Path_95" data-name="Path 95" d="M633.491-922.556H625.4v-1.624h8.091a4.5,4.5,0,0,0,3.36-1.4,4.507,4.507,0,0,0,1.4-3.367,4.563,4.563,0,0,0-1.4-3.377,5.744,5.744,0,0,0-.454-.4,5.072,5.072,0,0,1-1.063,1.533,4.821,4.821,0,0,1-3.551,1.483h-6.116v-1.624h6.116a3.212,3.212,0,0,0,2.4-1,3.409,3.409,0,0,0,.782-1.168,4.925,4.925,0,0,0-1.5-.225H618.431a5.084,5.084,0,0,1-3.681-1.519,5.043,5.043,0,0,1-1.528-3.69,5.086,5.086,0,0,1,1.519-3.682,5.22,5.22,0,0,1,1.768-1.178l.005-.019.035-.01a4.124,4.124,0,0,1,.929-1.4,4.01,4.01,0,0,1,2.929-1.212l6.2,0a2.447,2.447,0,0,1,1.52.613l.015.014a1.77,1.77,0,0,1,.587,1.516,1.855,1.855,0,0,1-.858,1.363l-.02.014a2.48,2.48,0,0,1-1.512.4h-7.9a4.235,4.235,0,0,0-.534.034c0,.066-.007.131-.007.2a2.4,2.4,0,0,0,.737,1.781,2.4,2.4,0,0,0,1.78.736H631.8a4.815,4.815,0,0,1,3.556,1.474,4.877,4.877,0,0,1,1.478,3.56c0,.091,0,.182-.008.274l.021.01-.008.044a7.039,7.039,0,0,1,1.155.916,6.2,6.2,0,0,1,1.884,4.533A6.138,6.138,0,0,1,638-924.427,6.13,6.13,0,0,1,633.491-922.556Zm-17.2-19.258a4.1,4.1,0,0,0-.4.347,3.469,3.469,0,0,0-1.047,2.539,3.428,3.428,0,0,0,1.047,2.538,3.469,3.469,0,0,0,2.538,1.047h15.033a6.646,6.646,0,0,1,1.725.222,3.249,3.249,0,0,0-.986-2.016,3.209,3.209,0,0,0-2.4-.993H620.407a4.01,4.01,0,0,1-2.929-1.212A3.991,3.991,0,0,1,616.289-941.814Zm2.4-2.31,7.73,0a.851.851,0,0,0,.531-.135c.061-.043.153-.119.159-.181l0-.035c.005-.04-.042-.1-.085-.137a.809.809,0,0,0-.506-.191h-6.114A2.393,2.393,0,0,0,618.688-944.124Zm4.4,21.081-.65-.487a1.446,1.446,0,0,1-.21-.2l-.027-.029a4.322,4.322,0,0,1-1.306-3.158,4.281,4.281,0,0,1,1.312-3.164,4.546,4.546,0,0,1,1.421-.962l.743-.326.651,1.488-.743.325a2.972,2.972,0,0,0-.929.629,2.677,2.677,0,0,0-.831,2.01,2.679,2.679,0,0,0,.831,2.01c.028.028.053.055.077.082l.01.011.624.467Z" fill="#d9d9e2"/>
          </g>
        </g>
      </g>
      <g id="Group_29" data-name="Group 29">
        <g id="Layer0_0_2_STROKES" data-name="Layer0 0 2 STROKES">
          <g id="Group_28" data-name="Group 28">
            <path id="Path_96" data-name="Path 96" d="M624.386-922.569a.8.8,0,0,1-.216-.03,4.38,4.38,0,0,1-1.792-.993.811.811,0,0,1-.056-1.146.812.812,0,0,1,1.147-.057,2.746,2.746,0,0,0,1.038.6.484.484,0,0,1,.054,0h1.651a.812.812,0,0,1,.812.812.813.813,0,0,1-.812.812h-1.651a.817.817,0,0,1-.087-.005A.868.868,0,0,1,624.386-922.569Zm-.433-6.915a.811.811,0,0,1-.743-.482.813.813,0,0,1,.412-1.072,3.915,3.915,0,0,1,.995-.277.749.749,0,0,1,.149-.009h1.716a.812.812,0,0,1,.812.812.812.812,0,0,1-.812.812H624.8a2.206,2.206,0,0,0-.519.146A.8.8,0,0,1,623.953-929.484Z" fill="#d9d9e2"/>
          </g>
        </g>
      </g>
    </g>
  </g>
</svg>
