<svg width="48" height="48" viewBox="0 0 48 48" fill="none" xmlns="http://www.w3.org/2000/svg">
<path d="M25.8667 32.1449L38.7195 21.913L39.0358 21.6625C40.3347 20.6339 40.5539 18.7471 39.5254 17.4482C39.3829 17.2683 39.2204 17.1054 39.0408 16.9626L25.8669 6.48517C24.7737 5.61578 23.2253 5.61578 22.1321 6.48517L8.94915 16.9698C7.65241 18.0011 7.43724 19.8884 8.46856 21.1851C8.6095 21.3623 8.77005 21.523 8.94715 21.6641L9.2595 21.913L22.1313 32.1461C23.2248 33.0155 24.7737 33.015 25.8667 32.1449Z" fill="#58CFFF"/>
<path opacity="0.5" fill-rule="evenodd" clip-rule="evenodd" d="M22.1127 37.3414L10.6719 28.2459C9.8911 27.6251 8.75495 27.7549 8.13423 28.5357C8.12945 28.5417 8.12472 28.5477 8.12002 28.5538C7.50516 29.3477 7.65036 30.4898 8.44432 31.1046C8.44719 31.1069 8.45008 31.1091 8.45297 31.1113L22.1746 41.6063C23.2502 42.429 24.7435 42.4291 25.8193 41.6066L39.5356 31.1197C40.3387 30.5057 40.4919 29.3569 39.8779 28.5538C39.8753 28.5504 39.8727 28.547 39.87 28.5435C39.2534 27.7488 38.1093 27.6044 37.3145 28.221C37.3087 28.2254 37.303 28.23 37.2973 28.2345L25.847 37.3411C24.7541 38.2103 23.2059 38.2105 22.1127 37.3414Z" fill="#58CFFF"/>
</svg>
