<svg width="18" height="18" viewBox="0 0 18 18" fill="none" xmlns="http://www.w3.org/2000/svg">
<path d="M8.99935 0.666595C11.2635 0.666595 11.546 0.674929 12.4343 0.716595C13.3218 0.758262 13.926 0.897429 14.4577 1.1041C15.0077 1.31576 15.471 1.60243 15.9343 2.06493C16.3581 2.48151 16.686 2.98542 16.8952 3.5416C17.101 4.07243 17.241 4.67743 17.2827 5.56493C17.3218 6.45326 17.3327 6.73576 17.3327 8.99993C17.3327 11.2641 17.3243 11.5466 17.2827 12.4349C17.241 13.3224 17.101 13.9266 16.8952 14.4583C16.6866 15.0147 16.3586 15.5188 15.9343 15.9349C15.5177 16.3585 15.0138 16.6864 14.4577 16.8958C13.9268 17.1016 13.3218 17.2416 12.4343 17.2833C11.546 17.3224 11.2635 17.3333 8.99935 17.3333C6.73518 17.3333 6.45268 17.3249 5.56435 17.2833C4.67685 17.2416 4.07268 17.1016 3.54102 16.8958C2.98462 16.687 2.48062 16.359 2.06435 15.9349C1.64052 15.5184 1.31263 15.0145 1.10352 14.4583C0.896849 13.9274 0.757682 13.3224 0.716016 12.4349C0.676849 11.5466 0.666016 11.2641 0.666016 8.99993C0.666016 6.73576 0.674349 6.45326 0.716016 5.56493C0.757682 4.6766 0.896849 4.07326 1.10352 3.5416C1.31205 2.98508 1.64002 2.48103 2.06435 2.06493C2.48074 1.64095 2.98471 1.31304 3.54102 1.1041C4.07268 0.897429 4.67602 0.758262 5.56435 0.716595C6.45268 0.677429 6.73518 0.666595 8.99935 0.666595ZM8.99935 4.83326C7.89428 4.83326 6.83447 5.27225 6.05307 6.05365C5.27167 6.83505 4.83268 7.89486 4.83268 8.99993C4.83268 10.105 5.27167 11.1648 6.05307 11.9462C6.83447 12.7276 7.89428 13.1666 8.99935 13.1666C10.1044 13.1666 11.1642 12.7276 11.9456 11.9462C12.727 11.1648 13.166 10.105 13.166 8.99993C13.166 7.89486 12.727 6.83505 11.9456 6.05365C11.1642 5.27225 10.1044 4.83326 8.99935 4.83326ZM14.416 4.62493C14.416 4.34866 14.3063 4.08371 14.1109 3.88836C13.9156 3.69301 13.6506 3.58326 13.3743 3.58326C13.0981 3.58326 12.8331 3.69301 12.6378 3.88836C12.4424 4.08371 12.3327 4.34866 12.3327 4.62493C12.3327 4.9012 12.4424 5.16615 12.6378 5.3615C12.8331 5.55685 13.0981 5.6666 13.3743 5.6666C13.6506 5.6666 13.9156 5.55685 14.1109 5.3615C14.3063 5.16615 14.416 4.9012 14.416 4.62493ZM8.99935 6.49993C9.66239 6.49993 10.2983 6.76332 10.7671 7.23216C11.236 7.701 11.4993 8.33689 11.4993 8.99993C11.4993 9.66297 11.236 10.2989 10.7671 10.7677C10.2983 11.2365 9.66239 11.4999 8.99935 11.4999C8.33631 11.4999 7.70042 11.2365 7.23158 10.7677C6.76274 10.2989 6.49935 9.66297 6.49935 8.99993C6.49935 8.33689 6.76274 7.701 7.23158 7.23216C7.70042 6.76332 8.33631 6.49993 8.99935 6.49993Z" fill="#55527C"/>
</svg>
