<svg width="20" height="20" viewBox="0 0 20 20" fill="none" xmlns="http://www.w3.org/2000/svg">
<path d="M16.6568 9.64332C16.5885 8.33159 16.1323 7.06966 15.346 6.01749C15.1064 6.27552 14.8503 6.51769 14.5793 6.74249C13.7468 7.43403 12.8164 7.99848 11.8185 8.41749C11.9577 8.70916 12.0852 8.99166 12.1977 9.25832V9.26082C12.2294 9.33533 12.26 9.41034 12.2893 9.48582C13.551 9.34416 14.881 9.39582 16.1702 9.56999C16.3419 9.59332 16.5035 9.61832 16.6568 9.64332ZM8.83602 3.43499C9.64813 4.5793 10.397 5.76719 11.0793 6.99332C12.0985 6.59166 12.941 6.08499 13.6193 5.52082C13.8548 5.32677 14.0765 5.11653 14.2827 4.89166C13.0835 3.88309 11.5663 3.3311 9.99935 3.33332C9.60938 3.33306 9.22013 3.3668 8.83602 3.43416V3.43499ZM3.54352 8.33082C4.1112 8.3165 4.67822 8.28231 5.24352 8.22832C6.60988 8.10611 7.96458 7.87708 9.29518 7.54332C8.59978 6.33517 7.84898 5.15975 7.04518 4.02082C6.18661 4.44615 5.42956 5.05116 4.82539 5.79481C4.22121 6.53846 3.78403 7.40335 3.54352 8.33082ZM4.81852 14.1958C5.14185 13.7233 5.56685 13.1917 6.13102 12.6133C7.34268 11.3717 8.77268 10.405 10.4277 9.87166L10.4793 9.85666C10.3418 9.55332 10.2127 9.28249 10.0827 9.02749C8.55268 9.47332 6.94102 9.75166 5.33518 9.89582C4.55185 9.96666 3.84935 9.99749 3.33268 10.0025C3.33121 11.5297 3.85626 13.0106 4.81935 14.1958H4.81852ZM12.5035 16.1792C12.1822 14.5585 11.7273 12.9673 11.1435 11.4217C9.47518 12.0275 8.14602 12.9133 7.11852 13.97C6.70385 14.3886 6.33586 14.8511 6.02102 15.3492C7.17002 16.2065 8.56575 16.6687 9.99935 16.6667C10.8576 16.6679 11.708 16.5029 12.5035 16.1808V16.1792ZM14.0644 15.2833C15.3654 14.2831 16.2517 12.8381 16.5535 11.225C16.2702 11.1542 15.911 11.0833 15.516 11.0283C14.6378 10.9019 13.7467 10.8926 12.866 11.0008C13.3619 12.3998 13.7623 13.8309 14.0644 15.2842V15.2833ZM9.99935 18.3333C5.39685 18.3333 1.66602 14.6025 1.66602 9.99999C1.66602 5.39749 5.39685 1.66666 9.99935 1.66666C14.6018 1.66666 18.3327 5.39749 18.3327 9.99999C18.3327 14.6025 14.6018 18.3333 9.99935 18.3333Z" fill="#55527C"/>
</svg>
