<svg xmlns="http://www.w3.org/2000/svg" width="108.594" height="23.832" viewBox="0 0 108.594 23.832">
  <g id="Logo_Grey_07" data-name="Logo Grey 07" transform="translate(-457.024 948)">
    <path id="Path_82" data-name="Path 82" d="M485.333-924.891v.206h-8.575v-.206c.964-.173,1.343-.414,1.446-1.171V-937.5c0-2.1-.757-3.134-2.307-3.134a2.429,2.429,0,0,0-2.273,1.722,6.817,6.817,0,0,1,.1,1.205v10.745c0,1.275.379,1.791,1.55,2.067v.206h-8.2v-.206c1.171-.276,1.55-.792,1.55-2.067V-937.5c0-2.1-.792-3.134-2.307-3.134a2.309,2.309,0,0,0-2.17,1.584v12.088c0,1.275.379,1.791,1.55,2.067v.206h-8.679v-.206c1.343-.31,2.032-.9,2.032-2.273V-938.15c0-1.826-.482-2.377-2.032-2.514v-.207l7.129-1.963v3.237A4.667,4.667,0,0,1,468.8-942.9c2.583,0,4.2,1.309,4.719,3.444a5,5,0,0,1,4.89-3.444c3.2,0,4.89,2.066,4.89,5.2v10.539C483.3-925.787,483.99-925.2,485.333-924.891Z" fill="#d9d9e2"/>
    <path id="Path_83" data-name="Path 83" d="M503.554-928.439c-.586,2.824-2.411,4.271-4.822,4.271a3.291,3.291,0,0,1-3.582-3.031l-.068-.275a4.735,4.735,0,0,1-4.753,3.306,4.283,4.283,0,0,1-4.615-4.3c0-3.065,2.48-5.063,6.44-5.889l2.859-.586v-.723c0-2.652-.965-4.477-3.858-4.477-2.238,0-3.822,1.068-4.58,3.754l-.275-.069c.551-3.96,3.168-6.44,7.232-6.44,4.58,0,6.578,2.927,6.578,7.336v6.922c0,1.205.585,1.825,1.343,1.825.654,0,1.412-.379,1.791-1.653Zm-8.541.379v-6.027l-1.343.242a3.549,3.549,0,0,0-3.2,3.926c0,1.756.861,3.134,2.514,3.134A2.022,2.022,0,0,0,495.013-928.06Z" fill="#d9d9e2"/>
    <path id="Path_84" data-name="Path 84" d="M522.255-924.891v.206h-8.678v-.206c1.136-.276,1.55-.792,1.55-2.067v-10.5c0-2.1-.793-3.168-2.411-3.168a2.784,2.784,0,0,0-2.583,1.688v11.984c0,1.275.379,1.791,1.55,2.067v.206H503v-.206c1.343-.31,2.032-.9,2.032-2.273V-938.15c0-1.826-.482-2.377-2.032-2.514v-.207l7.129-1.963v3.375A5.045,5.045,0,0,1,515.2-942.9c3.272,0,5.029,2,5.029,5.235v10.5C520.224-925.787,520.912-925.2,522.255-924.891Z" fill="#d9d9e2"/>
    <path id="Path_85" data-name="Path 85" d="M533.966-928.749c-.758,2.515-2.617,4.581-5.614,4.581-2.893,0-4.27-1.825-4.27-4.512v-12.949h-2v-.172a22.171,22.171,0,0,0,6.992-6.2h.137v5.682h3.479v.689h-3.479v12.157c0,1.584.655,2.652,1.929,2.652a2.618,2.618,0,0,0,2.548-2.032Z" fill="#d9d9e2"/>
    <path id="Path_86" data-name="Path 86" d="M548.259-930.918c-.861,4.959-3.995,6.75-6.991,6.75-3.995,0-7.646-3.1-7.646-9.023,0-5.648,3.134-9.712,7.853-9.712,3.34,0,6.784,2.1,6.75,7.783H537.617c.345,4.408,2.618,6.854,5.958,6.854a4.354,4.354,0,0,0,4.443-2.721Zm-10.676-5.442v.379h5.958c.034-4.408-1.1-5.958-2.824-5.958C538.788-941.939,537.583-939.8,537.583-936.36Z" fill="#d9d9e2"/>
    <path id="Path_87" data-name="Path 87" d="M561.451-942.9v4.959h-.172a3.791,3.791,0,0,0-1.791-.31c-2.239,0-3.72,1.206-3.72,5.786v5.3c0,1.549.861,2.032,2.721,2.273v.206h-9.85v-.206c1.344-.31,2.032-.9,2.032-2.273V-937.84c0-1.963-.516-2.652-2.032-2.79v-.207l6.923-2v7.714h.172c.275-5.544,2.342-7.783,5.338-7.783Z" fill="#d9d9e2"/>
    <path id="Path_88" data-name="Path 88" d="M559.936-927.061a2.867,2.867,0,0,1,2.858-2.824,2.859,2.859,0,0,1,2.824,2.824,2.844,2.844,0,0,1-2.824,2.858A2.851,2.851,0,0,1,559.936-927.061Z" fill="#d9d9e2"/>
  </g>
</svg>
