<svg width="48" height="48" viewBox="0 0 48 48" fill="none" xmlns="http://www.w3.org/2000/svg">
<path d="M10.5858 13.4142C9.80474 12.6332 9.80474 11.3668 10.5858 10.5858C11.3668 9.80474 12.6332 9.80474 13.4142 10.5858L25.4142 22.5858C26.1714 23.3429 26.1979 24.5621 25.4743 25.3514L14.4743 37.3514C13.7279 38.1657 12.4628 38.2207 11.6485 37.4743C10.8343 36.7279 10.7793 35.4628 11.5257 34.6486L21.2317 24.0602L10.5858 13.4142Z" fill="#665AFF"/>
<path opacity="0.5" d="M42 34H26C24.8954 34 24 34.8954 24 36C24 37.1046 24.8954 38 26 38H42C43.1046 38 44 37.1046 44 36C44 34.8954 43.1046 34 42 34Z" fill="#665AFF"/>
</svg>
