<svg width="48" height="48" viewBox="0 0 48 48" fill="none" xmlns="http://www.w3.org/2000/svg">
<path d="M12 18V30C12 33.3137 14.6863 36 18 36H30V37.6364C30 40.465 28.465 42 25.6364 42H10.3636C7.53502 42 6 40.465 6 37.6364V22.3636C6 19.535 7.53502 18 10.3636 18H12Z" fill="#F66565"/>
<path opacity="0.5" fill-rule="evenodd" clip-rule="evenodd" d="M20.3636 8H35.6364C38.465 8 40 9.53502 40 12.3636V27.6364C40 30.465 38.465 32 35.6364 32H20.3636C17.535 32 16 30.465 16 27.6364V12.3636C16 9.53502 17.535 8 20.3636 8Z" fill="#F66565"/>
</svg>
