<svg width="50" height="48" viewBox="0 0 50 48" fill="none" xmlns="http://www.w3.org/2000/svg">
<path d="M23.4141 6.44366L9.27193 20.5858C8.43067 21.4271 8.04246 22.5498 8.10732 23.6509C8.11485 23.7787 8.12349 23.9031 8.1346 24.0245C8.1346 24.0573 34.0847 24.0573 34.0847 24.0573C34.7331 23.4089 35.8902 22.2518 37.5562 20.5858L23.4141 6.44366ZM26.2425 3.61523L40.3846 17.7574C41.9467 19.3195 41.9467 21.8521 40.3846 23.4142L26.2425 37.5564C23.1183 40.6805 18.053 40.6805 14.9288 37.5564L6.4435 29.0711C3.31931 25.9469 3.31931 20.8816 6.4435 17.7574L20.5856 3.61523C22.1477 2.05313 24.6804 2.05313 26.2425 3.61523Z" fill="#FFC261"/>
<path opacity="0.5" fill-rule="evenodd" clip-rule="evenodd" d="M42 44C45.3137 44 48 41.3137 48 38C48 35.7909 46 32.4575 42 28C38 32.4575 36 35.7909 36 38C36 41.3137 38.6863 44 42 44Z" fill="#FFC261"/>
</svg>
