<svg width="48" height="48" viewBox="0 0 48 48" fill="none" xmlns="http://www.w3.org/2000/svg">
<path opacity="0.3" fill-rule="evenodd" clip-rule="evenodd" d="M12 4.11963H36C37.1046 4.11963 38 4.99279 38 6.06988V23.6221C38 24.6992 37.1046 25.5724 36 25.5724H12C10.8954 25.5724 10 24.6992 10 23.6221V6.06988C10 4.99279 10.8954 4.11963 12 4.11963ZM15 9.97038C14.4477 9.97038 14 10.407 14 10.9455C14 11.4841 14.4477 11.9206 15 11.9206H27C27.5523 11.9206 28 11.4841 28 10.9455C28 10.407 27.5523 9.97038 27 9.97038H15ZM15 13.8709C14.4477 13.8709 14 14.3075 14 14.846C14 15.3846 14.4477 15.8211 15 15.8211H21C21.5523 15.8211 22 15.3846 22 14.846C22 14.3075 21.5523 13.8709 21 13.8709H15Z" fill="#F66565"/>
<path fill-rule="evenodd" clip-rule="evenodd" d="M7.58549 13.0377L24 24.5977L40.4145 13.0377C40.8622 12.7224 41.4873 12.8207 41.8107 13.2573C41.9338 13.4235 42 13.6232 42 13.8282V33.3739C42 35.5281 40.2091 37.2744 38 37.2744H10C7.79086 37.2744 6 35.5281 6 33.3739V13.8282C6 13.2897 6.44772 12.8531 7 12.8531C7.21021 12.8531 7.41508 12.9177 7.58549 13.0377Z" fill="#F66565"/>
</svg>
